<svg xmlns="http://www.w3.org/2000/svg" viewBox="1055.53 2622.17 387.23 324.67" width="200" height="200">
  <path d="M 1382.33 2874.19 C 1381.64 2881.19 1381.91 2909.38 1382.65 2911.75 C 1387.04 2912.51 1405.65 2912.27 1407.91 2911.42 C 1408.52 2906 1408.27 2876.61 1407.57 2874.19 C 1399.24 2874.19 1390.88 2874.19 1382.33 2874.19 Z M 1090.27 2911.5 C 1093.29 2912.36 1113.4 2912.32 1116.08 2911.49 C 1116.08 2899.13 1116.08 2886.74 1116.08 2874.22 C 1107.39 2874.22 1098.95 2874.22 1090.27 2874.22 C 1090.27 2886.81 1090.27 2899.18 1090.27 2911.5 Z M 1131.06 2720.82 C 1131.75 2721.05 1132.04 2721.24 1132.34 2721.24 C 1209.44 2721.28 1286.54 2721.31 1363.64 2721.33 C 1364.61 2721.33 1365.59 2721.22 1366.56 2721.15 C 1366.66 2721.14 1366.76 2721.06 1366.84 2720.99 C 1366.92 2720.92 1366.97 2720.82 1367.14 2720.59 C 1367.02 2720.19 1366.91 2719.66 1366.7 2719.19 C 1360.13 2704.32 1353.83 2689.32 1346.87 2674.64 C 1341.45 2663.2 1331.94 2657.11 1319.17 2657.09 C 1272.54 2656.99 1225.9 2657.04 1179.27 2657.06 C 1177.43 2657.06 1175.54 2657.13 1173.74 2657.49 C 1163 2659.61 1155.37 2665.75 1150.89 2675.7 C 1144.54 2689.83 1138.31 2704.01 1132.04 2718.18 C 1131.69 2718.96 1131.44 2719.78 1131.06 2720.82 Z M 1090.21 2856.57 C 1196.4 2856.57 1302.1 2856.57 1408.16 2856.57 C 1408.16 2855.15 1408.16 2853.98 1408.16 2852.8 C 1408.16 2844.06 1408.16 2835.32 1408.16 2826.58 C 1408.16 2814.34 1408.18 2802.1 1408.16 2789.87 C 1408.15 2782.43 1406.08 2775.65 1401.45 2769.75 C 1393.83 2760.04 1386.13 2750.39 1378.57 2740.63 C 1377.28 2738.97 1375.95 2738.4 1373.89 2738.4 C 1290.74 2738.45 1207.59 2738.45 1124.44 2738.4 C 1122.39 2738.4 1121.04 2738.96 1119.75 2740.62 C 1112.81 2749.61 1105.92 2758.66 1098.64 2767.38 C 1092.58 2774.65 1089.99 2782.85 1090.02 2792.16 C 1090.08 2812.37 1090.04 2832.58 1090.05 2852.8 C 1090.05 2853.98 1090.14 2855.15 1090.21 2856.57 Z M 1133.17 2874.41 C 1133.17 2875.76 1133.18 2876.94 1133.17 2878.12 C 1133.17 2889.27 1133.2 2900.41 1133.16 2911.55 C 1133.13 2922.32 1126.33 2929.06 1115.49 2929.1 C 1107.29 2929.12 1099.1 2929.14 1090.91 2929.1 C 1079.96 2929.05 1073.16 2922.21 1073.16 2911.23 C 1073.14 2871.03 1073.16 2830.82 1073.14 2790.62 C 1073.13 2778.28 1076.74 2767.27 1084.6 2757.61 C 1092.6 2747.79 1100.35 2737.75 1108.13 2727.76 C 1109.46 2726.05 1110.62 2724.16 1111.5 2722.19 C 1119.47 2704.35 1127.31 2686.45 1135.29 2668.62 C 1140.61 2656.72 1149.36 2648.25 1161.42 2643.26 C 1167.58 2640.71 1174.04 2639.95 1180.65 2639.96 C 1221.62 2639.98 1262.59 2639.97 1303.56 2639.99 C 1309.78 2639.99 1316.03 2639.77 1322.23 2640.17 C 1340.6 2641.36 1353.85 2650.58 1362.1 2666.85 C 1365.66 2673.85 1368.6 2681.16 1371.79 2688.34 C 1376.85 2699.71 1381.86 2711.1 1386.97 2722.44 C 1387.81 2724.31 1388.91 2726.12 1390.17 2727.73 C 1398.11 2737.89 1406.05 2748.04 1414.14 2758.08 C 1421.13 2766.74 1424.72 2776.64 1424.92 2787.67 C 1425.16 2800.99 1425.02 2814.32 1425.03 2827.65 C 1425.04 2855.51 1425.04 2883.36 1425.01 2911.22 C 1425.01 2913.07 1424.98 2914.97 1424.55 2916.75 C 1422.79 2923.92 1416.66 2928.9 1409.05 2929.05 C 1399.77 2929.24 1390.48 2929.24 1381.2 2929.07 C 1372.66 2928.91 1366.13 2922.65 1365.28 2914.18 C 1365.14 2912.77 1365.14 2911.34 1365.14 2909.92 C 1365.13 2899.43 1365.13 2888.95 1365.13 2878.46 C 1365.13 2877.17 1365.13 2875.87 1365.13 2874.68 C 1362.55 2873.88 1138.06 2873.64 1133.17 2874.41 Z" fill="#000000" fill-rule="evenodd"/>
  <path d="M 1147.45 2800.67 C 1147.51 2808.38 1153.77 2814.6 1161.44 2814.55 C 1169 2814.51 1175.34 2808.03 1175.28 2800.44 C 1175.21 2792.72 1168.62 2786.23 1161.01 2786.38 C 1153.36 2786.53 1147.4 2792.82 1147.45 2800.67 Z M 1161.1 2769.44 C 1178.39 2769.41 1192.14 2783.04 1192.23 2800.29 C 1192.33 2817.49 1178.53 2831.46 1161.42 2831.5 C 1144.19 2831.54 1130.18 2817.53 1130.18 2800.27 C 1130.19 2783.43 1144.18 2769.47 1161.1 2769.44 Z" fill="#000000" fill-rule="evenodd"/>
  <path d="M 1323.1 2800.49 C 1323.07 2808.24 1329.19 2814.46 1336.92 2814.57 C 1344.46 2814.67 1350.86 2808.31 1350.96 2800.64 C 1351.06 2792.92 1344.6 2786.38 1336.89 2786.39 C 1329.3 2786.39 1323.12 2792.71 1323.1 2800.49 Z M 1337.18 2769.44 C 1354.38 2769.53 1368.03 2783.36 1367.95 2800.63 C 1367.87 2817.81 1354.01 2831.6 1336.82 2831.49 C 1320.01 2831.39 1305.94 2818.21 1306.01 2800.27 C 1306.08 2780.82 1322.51 2768.91 1337.18 2769.44 Z" fill="#000000" fill-rule="evenodd"/>
  <path d="M 1249.32 2793.15 C 1256.73 2793.15 1264.15 2793.1 1271.56 2793.17 C 1276.15 2793.21 1279.15 2795.54 1280.23 2799.66 C 1281.46 2804.29 1278.81 2808.86 1274.17 2809.99 C 1272.91 2810.29 1271.58 2810.39 1270.29 2810.39 C 1256.22 2810.42 1242.16 2810.41 1228.09 2810.41 C 1227.11 2810.4 1226.12 2810.39 1225.16 2810.24 C 1220.42 2809.46 1217.67 2806.07 1217.87 2801.33 C 1218.06 2796.96 1221.25 2793.57 1225.77 2793.22 C 1228.37 2793.01 1231 2793.15 1233.62 2793.15 C 1238.85 2793.14 1244.09 2793.14 1249.32 2793.14 C 1249.32 2793.15 1249.32 2793.15 1249.32 2793.15 Z" fill="#000000" fill-rule="evenodd"/>
</svg>